<?xml version="1.0" encoding="UTF-8" standalone="no"?>
<!-- Created with Inkscape (http://www.inkscape.org/) -->

<svg
   xmlns:dc="http://purl.org/dc/elements/1.1/"
   xmlns:cc="http://creativecommons.org/ns#"
   xmlns:rdf="http://www.w3.org/1999/02/22-rdf-syntax-ns#"
   xmlns:svg="http://www.w3.org/2000/svg"
   xmlns="http://www.w3.org/2000/svg"
   xmlns:sodipodi="http://sodipodi.sourceforge.net/DTD/sodipodi-0.dtd"
   xmlns:inkscape="http://www.inkscape.org/namespaces/inkscape"
   version="1.1"
   width="450"
   height="552.43115"
   viewBox="0 0 450 552.43115"
   id="Layer_1"
   xml:space="preserve"
   inkscape:version="0.48.5 r10040"
   sodipodi:docname="iSpindel.svg"><sodipodi:namedview
   pagecolor="#ffffff"
   bordercolor="#666666"
   borderopacity="1"
   objecttolerance="10"
   gridtolerance="10"
   guidetolerance="10"
   inkscape:pageopacity="0"
   inkscape:pageshadow="2"
   inkscape:window-width="682"
   inkscape:window-height="480"
   id="namedview18"
   showgrid="false"
   inkscape:zoom="0.42720256"
   inkscape:cx="225"
   inkscape:cy="276.21558"
   inkscape:window-x="452"
   inkscape:window-y="95"
   inkscape:window-maximized="0"
   inkscape:current-layer="Layer_1" /><metadata
   id="metadata3090"><rdf:RDF><cc:Work
       rdf:about=""><dc:format>image/svg+xml</dc:format><dc:type
         rdf:resource="http://purl.org/dc/dcmitype/StillImage" /><dc:title /></cc:Work></rdf:RDF></metadata><defs
   id="defs3088" />



<path
   d="M 203.00859,187.29845 91.846975,462.4331 c -7.738317,19.15306 1.515755,40.95447 20.668915,48.69282 l 4.62405,1.86824 c 19.15308,7.73835 40.95448,-1.51573 48.69286,-20.66887 L 276.99442,217.19064 203.00859,187.29845 z"
   id="path3084"
   style="fill:#c31028;fill-opacity:1"
   inkscape:connector-curvature="0" /><g
   transform="translate(-31,-32.3125)"
   id="g3868"><g
     id="g3873"
     style="fill:#5e5e5e;fill-opacity:1"><path
       d="M 359.90625,32.3125 344,55.78125 c 64.54878,32.31244 108.875,99.02844 108.875,176.125 0,54.393 -22.05975,103.64925 -57.71875,139.28125 l 19.875,19.90625 C 455.78525,350.37175 481,294.06925 481,231.90625 481,145.12715 431.86626,69.848169 359.90625,32.3125 z"
       id="path3895" /><path
       d="m 328.0625,79.28125 -16.03125,23.625 c 49.78517,21.64902 84.59375,71.24861 84.59375,129 0,38.852 -15.74775,74.048 -41.21875,99.5 l 13,13 6.875,6.875 c 30.565,-30.541 49.46875,-72.752 49.46875,-119.375 0,-67.41686 -39.5381,-125.59373 -96.6875,-152.625 z"
       id="path3891" /><path
       d="m 295.90625,126.71875 -16.375,24.15625 c 35.14682,10.18806 60.84375,42.60024 60.84375,81.03125 0,23.312 -9.468,44.4155 -24.75,59.6875 L 335.53125,311.5 C 355.90725,291.14 368.5,262.98725 368.5,231.90625 c 0,-48.07789 -30.16223,-89.08386 -72.59375,-105.1875 z"
       id="path3887" /><path
       d="m 225.5,153.25 -16.125,-23.78125 c -38.87375,17.71692 -65.875,56.92897 -65.875,102.4375 0,31.082 12.59075,59.23275 32.96875,79.59375 L 196.375,291.59375 c -15.283,-15.271 -24.75,-36.3755 -24.75,-59.6875 0,-35.84088 22.35543,-66.42733 53.875,-78.65625 z"
       id="path3883" /><path
       d="M 193.4375,105.9375 177.53125,82.5 C 123.85994,110.74767 87.25,167.04311 87.25,231.90625 c 0.001,46.623 18.90275,88.833 49.46875,119.375 l 6.875,-6.875 13,-13 c -25.472,-25.45 -41.21875,-60.647 -41.21875,-99.5 0,-55.19338 31.78837,-102.94758 78.0625,-125.96875 z"
       id="path3881" /><path
       d="M 161.65625,59.09375 145.8125,35.6875 C 77.28515,74.250861 31,147.67241 31,231.90625 c 0,62.163 25.21375,118.4665 65.96875,159.1875 l 19.875,-19.90625 C 81.18375,335.5555 59.125,286.29925 59.125,231.90625 c 0,-74.54765 41.4365,-139.39214 102.53125,-172.8125 z"
       id="path3078" /></g></g>

<rect
   width="121.72212"
   height="42.134579"
   ry="14.04486"
   x="212.10298"
   y="153.58427"
   transform="matrix(0.99998629,-0.00523596,0.00523596,0.99998629,0,0)"
   id="rect2991"
   style="opacity:0.5;fill:#00000d;fill-opacity:0.05490196;fill-rule:nonzero;stroke:#b41414;stroke-opacity:0" /><rect
   width="119.38131"
   height="56.17944"
   ry="14.04486"
   x="184.92398"
   y="147.47102"
   transform="translate(0,-1.171875e-6)"
   id="rect2993"
   style="opacity:0.5;fill:#00000d;fill-opacity:0.05490196;fill-rule:nonzero;stroke:#b41414;stroke-opacity:0" /><rect
   width="91.291588"
   height="51.497818"
   ry="0"
   x="-30.191278"
   y="561.14423"
   transform="matrix(0.83223711,-0.55441988,0.55441988,0.83223711,0,0)"
   id="rect2995"
   style="opacity:0.5;fill:#00000d;fill-opacity:0.05490196;fill-rule:nonzero;stroke:#b41414;stroke-width:1;stroke-opacity:0" /><rect
   width="94.98922"
   height="23.776443"
   x="250.14069"
   y="73.716331"
   transform="matrix(0.92718385,0.3746066,-0.3746066,0.92718385,0,0)"
   id="rect3791"
   style="fill:#0000ff;fill-opacity:1;fill-rule:nonzero;stroke:#0000ff;stroke-width:1.15228105;stroke-opacity:1" /></svg>